# xmcd
#
# Track frame offsets: 
#        150
#        9690
#        41367
#        66582
#        83583
#        109921
#        130865
#        154372
#        174026
#        198164
#
# Disc length: 2967 seconds
#
# Revision: 0
# Processed by: cddbd v1.5.2PL0 Copyright (c) Steve Scherf et al.
# Submitted via: ExactAudioCopy v1.0b1
#
DISCID=7b0b950a
DTITLE=SKY ARCHITECTS - 2012   The Promise Of Tomorrow
DYEAR=2012
DGENRE=Progressive Rock
TTITLE0=The Promise
TTITLE1=Fade Out
TTITLE2=We'll Never Forget This
TTITLE3=All Free Must Fly
TTITLE4=Waves Of Light
TTITLE5=The Dark Wave
TTITLE6=Breach These Walls
TTITLE7=Ignite
TTITLE8=Endzeit
TTITLE9=Procession Of Hearts
EXTD=
EXTT0=
EXTT1=
EXTT2=
EXTT3=
EXTT4=
EXTT5=
EXTT6=
EXTT7=
EXTT8=
EXTT9=
PLAYORDER=
